<?xml version="1.0"?>
    
<!--********* Copyright (c) 2024 Pareto Softare, LLC DBA Simplemaps.com ***************************************
************* Free for Commercial Use, full terms at  https://simplemaps.com/resources/svg-license ************
************* Attribution is appreciated! https://simplemaps.com *******************************************-->

<svg baseprofile="tiny" fill="#6f9c76" height="398" stroke="#ffffff" stroke-linecap="round" stroke-linejoin="round" stroke-width=".5" version="1.2" viewbox="0 0 1000 398" width="1000" xmlns="http://www.w3.org/2000/svg">
 <g id="features">
  <path d="M759.5 30.6l3.2 2.1 1.1 1.6 1.6 1.3 0.6 0.9 0.5 1.2 0.8 1.1 1.1 0.8 1.2 0.4 0.9-0.1 0.7-0.2 0.6 0.1 0 1.1 0.3 0.5 1.1 1.2 0.3 0.9 0.8-0.5 0.8 0 3 0.7 0.4 0.3 0.6 0.4 5.1 5.7 1.3 1 1 0.5 3.2 0.8 1.1 0.6 7.1 5.4 2.2 1.1 3.9 0.1 3.7 1.4 0.6 0 0.2-0.1 0.3 0 0.5 0.5 0.2 0.6 0 0.6 0.1 0.6 0.6 0.5 1.2 0.5 1.2 0.2 1.1 0 1.1-0.2 4.3-1.6 1.3 0 1.7 1.3 0.3 3.9 1.2 1.7 3.5 2.4 2 0.8 1.6-0.2 0.2-0.1 2.3 0.6 0.7 2.6 0.4 5.7 0.4 1.8 0.3 1.7 0.5 1.3 1.5 1.2 1.9 0.7 5.8 1.1 1 0.4 0.8 0.4 0.8 0.3 1.2-0.1 2.7-1 1-0.2 0.7 0.2 1.1 0.3 2.1 2.3 1.6 0.5 2.2 0.1 0.7 0.1 0.9 0.3 0.5 0.4 1.2 1.2 0.9 0.7 0.8 0.3 0.8 0 3.8-0.6 0.7 0.1 1.9 0.9 0.8-0.1-0.1-2.1 0.6-0.3 1.9 0.5 2.7 0.3 0.7 0.3 0.9 0.6 1.4 1.3 1.1 0.4 0.8-0.1 1.4-0.8 5.3-0.6 1-0.6-0.6-3.6 0.2-4.1-0.1-0.3 0.6 0.1 1.1-0.1 0.6-0.1 0.5-0.2 1.3-1.6 0.3-0.3 0.3-0.1 1-0.8 0.6-0.1 0.6 0.2 1.5 1.6 1 0.7 1.1 0.4 1.1 0.3 1.4 0.1 1.2-0.1 0.6 0.1 0.4 0.2 0.3 0.5 0.3 1.5 0.3 0.4 1 0 1.4-0.5 1.2-0.1 0.5 0.8 0.3 0.6 3.6 4.6 0.3 0.7 0.2 1 0.6 0.9 1.3 1.3 3.3 2 0.5 0.7 2.2 1.6 1.5 0.9 0.9 0.3 1 0.3 1.2 0.1 1.3-0.1 2.3-0.5 1-0.2 1.1 0.4 0.9 0.8 0.7 0.7 0.5 0.4 1 0.3 2.5 2.3 3.2 1.9 1.3 0.5 1 0.7 3.1 0.6 3.4 1.3 1 0.6-0.6 0.8-1.3 0.9-0.7 0.3-0.7 0.2-0.8 0.1-1.9-0.3-0.5 0.1-1.4 0.9-1.4-0.1-3.8-2.1-0.8-0.1-0.7-0.1-1 0.1-0.8-0.1-1-0.4-1-0.3-0.8 0.3-0.3 0.9 0.3 1.2 0.5 1.1 0.5 0.6 0.5 0.1 1.2-0.1 0.5 0.1 0.7 0.3 1.1 1.1 0.7 0.4 1.1 0.3 0.9 0.6 0.6 0.8 1.7 6.1 1 2.3 1.6 2.1 1 1 0.6 0.4 0.6 0 0.6 0 0.3 0.2 0.3 0.3 2.1 1.6 0.2 0.3 0.3 0.6 0.2 0.3 0.3 0 0.5-0.3 0.2 0.1 0.6 1 0.2 1-0.1 2.1 0 0.5 0.1 0.4 0.1 0.4-0.1 0.5-0.5 0.5-0.6 0.3-0.6 0.4-0.3 0.6 0.1 0.6 0.2 1 0 0.5-0.1 0.6-0.3 0.9 0 0.7 2.4 8.2 0 0.5-0.1 0.9 0.1 0.5 0.4 0.6 0.5 0.5 0.4 0.5 0 0.4-0.4 0-2.6 0-2.3 0.3-1.2 0-0.6-0.5-0.3-0.5-0.7-0.9-1.6-1.4-0.3 0.5-0.7 2.7-1.6 6.4-1.6 6.3-1.7 6.4-1.6 6.4-0.8 3.2-0.7 1.8-0.4 0.5-0.9 1.1-2.9 2.7-2.2 2.6-2.7 3.1-2.7 3.2-2.7 3.1-2.7 3.2-2.7 3.1-2.7 3.2-2.7 3.1-2.8 3.2-3.2 2.5-3.2 2.4-3.2 2.5-3.3 2.5-3.2 2.5-3.2 2.4-3.3 2.5-3.2 2.5-3.1 2.4-2.4 1.4-0.8 0.5-5 1.7-6.8 2.4-6.8 2.4-6.8 2.4-6.8 2.4-6.8 2.4-6.8 2.4-6.9 2.3-6.8 2.4-1.5 0.5-2.1 0.8-1 0.5-4 3.5-5.4 7.3-2.7 2.2-0.7 0.8-1.7 3.2-0.7 1-1.9 1.5-0.7 0.7 0 1.2 0.6 1 0.9 0.6 0.7 0.8 0.1 1.5-0.5 1.1-0.8 0.4-1 0.2-0.9 0.7-0.7 0.3-0.5-1-0.8-3.4-0.4-0.9-0.6-0.5-2.4-0.7-1.1-0.1-0.9 0.3-0.6 1 0 0.3 0.4 1.1-0.1 0.6-0.4 2.3-0.7 2.2-0.1 0.3-1 2.2-0.3 1.1-0.2 1 0.1 2 0.2 1.1 0 0.5-0.5 0.3-0.6 0.1-0.3 0.1 0 0.3 0 0.7 0.7 3.5-0.4 1-1.3 1.3-0.4 0.3-0.7 0.3-0.3 0.3-0.6 1-0.4 1.1-0.5 4 0 0.3-0.2 0.3-0.8 0.4-0.7 0.2-0.6 0.1-0.6 0.1-0.6 0.6-0.2 0.9 0 3.2-0.6 2.4-3.3 6.9-0.5 2.4-0.5 1.1-0.9 0.8-0.5 1.1 0.1 2.1 0.4 2 0.7 1 1.3 0.8-0.2 0.9-0.8 1-0.8 1.3-0.2 1 0.1 1.1-0.1 1-0.5 0.9-1.4 1-0.6 0.4-5 1.9-2.2 1.3-2.5 2.3-1 1.4-0.6 1.5 0 1.5 1.2 2.4 0.3 1.3-0.6 1.1-1.2 0.3-1.4 0-1.1 0.3-0.6 0.9-0.6 2.6-0.4 1.1-1.4 1.5-1.6 1.3-1-1-0.6-0.4-0.5-0.3-0.6 0-0.9 0.2-0.5 0-1-0.2-1.8-0.6-0.9-0.2-1.4 0-2.5 0.1-1.2-0.3-0.8-0.9-0.6-1.2-0.7-1-0.4-0.3-1.1-0.4-0.5-0.3-0.3-0.5-0.3-1.1-0.3-0.5-1-0.7-1.1-0.6-0.9-0.7-0.4-1.2-0.2-1-1.4-2.7-0.6-3.2-1.6-2.3 0-1.2 1.3-2.2 0.1-0.8-0.3-0.5-1.1-0.7-1.3 0-0.3-0.2-0.8-0.5-0.4-0.2-2.7-2.7-1.5-0.8-2 0.3-1.9 1.1-3.6 1.1-2-0.3-1.4-1.4-1.1-1.7-1.4-1.3-1.4-0.3-1.4 0-1.4-0.2-1.5-0.8-1-0.8-1.8-1.9-1-0.8-0.9-0.4-1.1-0.2-0.9-0.3-0.4-0.5-0.1 0-2.2 0.3-0.6 0.2-0.6 0.3-0.4 0.3-0.5 0.8-0.5 1.9-0.4 0.9-0.9 0.9-4.2 3.2-2.2 1.2-0.5 0.5-0.4 0-1 0-0.9-0.3-2.4-1.4-0.8-0.6-0.4-1.2 0.2-0.9 7.1-9.5 0.6-1.2-2.5 0.3-2.3 0.7-1.9-0.2-1.1-2.4 0-0.5 0.2-1.1 0-0.5-0.3-0.7-0.9-1.2-0.3-0.7 0.1-1 0.5-1.4 0.6-1.3 0.6-0.9 0.8-0.6 1-0.3 1.1 0 1.1 0 1.1 0.4 2.3 1.2 1 0.2 1.1-0.5 1-1.2 0.7-1.2 0.8-1 4.2-1.9 0.9-1 0-0.5 0-0.1-0.3-0.3-0.5-0.3-0.5-0.5-0.1-0.5 0-1-0.1-0.5-0.5-1.1-1.1-1.7-0.2-1.1 0.1-0.4 0.2-0.4 0.2-0.4-0.1-0.6-0.3-1 0-0.4 0-0.5 0-0.5 0.4-1.1 0.1-0.5-0.1-0.6-0.3-1.1 0-0.6-0.1-0.5-0.5-0.2-0.6-0.2-0.3-0.3 0-0.5 0.4-1.4 0.1-1.1 0-0.5-0.1-0.5-0.4-0.4-0.8-0.3-0.4-0.3-0.1-1.2 0.3-1.1 0.2-0.9-0.8-0.6-2.1-0.6-0.8-0.4-0.4-0.2-0.1-0.4-0.1-0.4 0.2-0.6 0.7-0.4 0.3-0.7 0.3-0.7 0.5-0.8-0.5 1.5-0.2 0.4 0.3 1.1 0.7-0.5 0.3-1.7 0.5-0.8 1.5 1.5 0.7-0.3 4-0.8 0.6 0.1 0.5 0.1 0.4 0 0.5-0.2 1.2-1.5 0.3-0.2 2-4.2 0.6-0.8 1.2 0.2 0.3 1.3-0.4 2.6 0.6-0.3 0.3-0.6 0.3-0.6 0.5-0.6 0.4-0.4 1.8-1 0.8-1 0.5-1.1 0.3-1.2 0.2-2.1 0.9-2 1.9-2.9 0.4-1.1-0.5-0.9 0.2-1.3 0.7-2.1 0.1-0.9 1.7-5.6 1.1-2 0.2-0.4 0.5-1.1 0.2-1.3 1.1-3.1 0.7-1 1.6-1.6 0.5-1 0-1.3-0.3-2.4-0.8-1.9-0.1-0.3-1.2 0-0.6 0-0.5-0.2-0.6-1-1.1-2.9-0.6-1.1-0.4-0.7-0.1-0.7 0.1-3.2-0.4-2.5 0-0.7 0.3-1.2 0.1-0.7-0.2-0.4-0.1-0.2-0.7-0.9-0.2-0.2-0.1-0.3-0.1-0.3-0.1-0.4 0-0.6 0.3-0.6 0.3-0.5 0.1-0.5-0.4-0.6 0.9-0.9 0.8-0.3 0.7-0.4 0.2-1.2 0.5-0.6 0.8-0.5 0.9-0.6 0.4-1.1-3.2 1.8-0.3 0.3-0.2 0.4 0 1-0.4 0.2-1.8 0.1-0.4 0.4 0 0.5-0.5 1.3-0.5 2.2 0 1.5 0.3 1.6 1.6 2.9 0.2 1.6-0.9 10.6-0.6 2.2-0.3 0.6-1.5 1.6-0.5 0.4-0.9 0.2-1.9 1.1-0.8 0.2-0.5-0.3-0.3-0.7-0.5-0.2-1.1 0.2-0.4-0.2-0.7-0.5-0.3-0.9 0.7-0.8 1.6-1.1 0.5-1.2 0.3-0.8 0.5-0.5 1.5-0.1 0.3 0.2 0.4 0.5 0.4 0.4 0.6 0 0.5-0.3 0.2-0.5 0-0.5-0.3-0.6-0.3 1.1-0.7-0.2-1.3-1.2-1.2 0.1-1 0.5-0.8 0.3-0.3-0.8 0.2-1.2 1-2.3 0.3-1.3 0.2-0.6 0.4-0.3 0.7-0.1 0.5-0.3 0.4-0.4 1.1-1.7-0.5 0.1-0.2 0.2-0.6 0.5-0.4 0.2-1.1-0.1-0.5 0.1-0.7 0.4-0.4 0.7-2.4 6-3.7 5.2-1.6 1.8-1.8 0.8-0.4 0.7-0.4 0.5-0.5 0.3-0.5 0-0.3-0.2-0.2-0.4-0.3-0.3-0.8-0.4-0.5 0.4-0.2 0.9 0.2 1.1 0.2 0.2 1.5 1.5 0.2 0.4 0 0.6-0.1 1.2-0.5 0.5-1.2-0.2-2.3-0.9-2.3-1.9-0.8-0.5-0.7-0.7-0.3-0.2-0.4-0.1-0.9-0.1-0.5-0.2-2.1-1.3-5.8-6.8-4.4-4.2-1.8-0.5-1.6-0.8-1.7 0.1-2.9-1-1-0.4-2.3-2-1.1-0.5-0.9 0-0.6-0.1-0.5-0.5-0.3-1.8-0.4-0.9-0.9-1.2-0.7-0.8-2-1.6-0.3-0.3-0.2-0.6-0.1-0.5 0.2-0.3 0.4 0.1 0.2 0.2 0.1 0.3 0.2 0.2 1.4 0.3 0.6 0 0.3 0.2 0.3 0.9 0.7 0.8 1.3-0.1 2-0.7 2.7-2.2 2.2-1.1 1.9-2.1 0.4-3.2-0.8-1.7-0.4-1.7-0.2-0.4 0.3-0.6 0.6-0.1 0.7-0.4 0.2-1.3-0.2-1.4-1.5-5.8-0.8-2.2-0.3-1-0.5-0.9-0.5-0.6-0.7-1-1.2-3.2-0.8-0.9-0.2-0.7-0.1-0.8 0.2-0.6 1.9-1.4-0.2-1.2 0-1.6 0.5-0.4 0.6-0.6 0.7-0.2 0.9 0 0.2-0.7 0-0.8 0.1-1 0.3-1-0.3-1.2 0.3-0.8 0.9-0.4-0.1-1.4-1.6-2.2-3.2-3.9-2.6-4.6-1.2-2.7-0.7-1.6 0.4-1.1 0.6-0.7 0.8-0.6 0.7-0.8 0.4-0.5 0.4-0.6 0.7-0.7 0.7-0.8 0.1-0.4 0.6-0.3 0.8 0.2 0.7 0 0.8-0.4 0.7-0.3 0.8 0.2 0.7-0.3 0.6-0.2-0.1 0.5 1 0.4 0.8 0.1 0.7-0.6 0.4-0.1 0.4-0.6 0.6-0.1 0.5 0.7 0.5 0.1 1 0.1 1.3-0.5 1.2-1 1.2-1.3 0.8-3.4 0.2-1 0.7-3.5 1-2.7 1.2-2.5 0.7-1.6 0.3-0.3 0.4-0.3 0.8-0.1 0.7-0.3 0.1 1.4 0.8 1.1 1.4 0.7 1.4 0.2 2.9 0 0-0.6-1.5-0.4-1.6-0.4-1.1 0-0.8-0.6-0.6-1.5-0.7-1.3-0.7-0.3-0.4-0.5-0.1-1.3-0.6-1.6-0.1-1.5-0.8-1.7-1-1.2-0.7-2.3 0.6-0.8 1.1-0.1 1.8-1.4 1.7-2.5 0.5-1 0.2-0.7 0.5-1.2 0.4-0.9 1.2-0.4 0.7-1.1 0.7-1.2 1 0.9 1.2-0.6 1.3-1 1.5-1.1 3.2-3.5 2.6-3.3 0.9-1.1 0.4-1.1 0.1-0.7 0.3-0.2 0.3-0.1 1.1-0.4 0.9-2 0.4-1.8 0.3-2.9 0-1.3-0.5-2.3-0.1-4.1 0.5-1.4 0-0.5 0.2-0.2 0.5 0.3 0.3 0.3 0.2 0.4 0.3 0.8 0.4 0 0-0.7 0.6-1.1 0.1-0.4-0.1-0.7-0.3-0.5-0.7-0.7-1.3-2.1-0.4-1.1-0.2-1.1 0.2-1.2 0.4-0.6 0.4-0.5 0.5-0.9 0.1-1.1-0.3-1.1-0.4-1-0.3-1.5-0.5-0.7-0.8-0.4-1-0.1-0.7-0.3-0.4-0.6-0.3-0.9-0.2-0.8 0-2.3 0.6-2.3 1.1-1.9 1.6-1.3 1 0.4 0.8 0.1 1.8-0.1 0.8-0.3 1-0.9 0.8-0.3 0.7-0.1 1.4-0.5 1.7-0.3 1-0.8 0.7-0.2 0.4-0.2 1.7-1.3 0.3-0.4 0.7-1 0.4-0.4 1.3-0.6 3.3-1 1.4-1 0.3 0.6 0 0.4-1.1 3.4 0.3 0.8 0.4 0.5 0.6 0.4 0.6 0.6 0.7 1.5 0.4 0.4-0.9-2.5-0.7-0.5-0.2-0.4 0-0.3 0.3-0.5 0-0.3-0.1-1.4 0.2-1 0.4-0.8 1-0.5 2.3 0.7 2.6-1.5 3.7-3.3 1.1-0.3 3.9 0.3 0.4-0.1 1.3-0.5 0.5-0.1 1.5 0 0.7-0.1 0.6-0.3 1.3 0.6 1.5-0.2 1.5-0.5 1.4-0.3 1-0.5 4.1-5.5 0.8-0.4 1.3 0.5 1.1 0.8 0.7 1.2 0.3 1.3 0.2 1.5 1-0.5 0.6-0.8 0.2-1.1 0.2-2.3 0.3-0.7 0.5-0.5 0.6-0.8 0.1 0.5 0.3 0.2 0.5 0 0.5-0.3 0.5-0.5 0.1-0.4 0-0.4 0.2-0.6 0.9-1 0.9-0.1 2.2 0.8-0.4-0.8-0.9-0.3-1.2-0.1-0.8-0.3-0.4-0.8 0.2-0.7 0.5-0.7 2-2 0.3-0.7 0-0.8-0.2-0.7 0.1-0.6z m-66.7 221.9l2.5 0.1 3.7 2.3 2.3 0.6-0.1 0.4-0.1 0.4-0.3 0.4-0.2 0.3-0.6 0.5-2.8 1.2-0.1 0.4-0.8 0.8-0.2 0.3-0.3 0.8-0.4 0.8-0.5 0.5-0.1 0-0.6 1-0.6 1.3-0.7 1.2-0.4 0.9-0.9 0.4-0.7 0.8 0.1 1.3-0.9 0.7-0.3 0.8-0.9 1.3-1.9-0.2-1.1 0.6-0.9 0.3-1.3-0.1-1.3-0.4-0.8-0.4-0.3-1.2 0.3-1.9 0.2-6.5 0.2-0.7 1.9-3.4 0.7-2.2 0.8-0.6 3.3-0.9 3-1.5 1.1-0.4z m-520-71.7l1.4 0.5 1.1 1.2 0.1 1.1-1.7 0.6-1.7-0.2-4.4-2 1.1-1.2 0.8 0.2 2.6 0 0.7-0.2z m-39-4.6l0.1 0.2 0.3 0.1 0.2 0.3 0.2 0.4-0.1 0.3-0.1 0.2-0.1 0.2-0.1 0.2-0.2 0.2-0.7 0.2-0.2 0.1-0.1 0.2 0.1 0.7 0 0.2-0.3 0.4-1.8 1.1-0.3 0-2-0.2-0.8-0.6-0.7-0.7-1.2-0.7 0.5-0.6 0.5-0.7 0.3-0.7 0.4-1.7 0.5-0.8 0.6-0.3 0.6 0.7 1-0.3 1.5 0.3 1.3 0.7 0.6 0.6z m58.1-30.8l0.7 0.4 0.7 0 0.7-0.3 0.6-0.3 0.2 2-1 2.2-1.6 2-1.6 1.2-1.9 0.6-0.3 0.3-0.1 0.6-0.7 1.5-1.1 1.7-0.7 0.8-0.8 0.5-0.8 0.3-0.8 0.1-1.9-0.1-0.6 0.2-1.1 0.8-0.7 0.2-0.6-0.2-1.1-0.7-0.5-0.3-2-0.3-0.4-0.2-0.1-0.5 0.3-0.6 0.7-0.8 0.4-0.4 2.2-1 0.7-0.6 0.6-1.9 0.5 0 2.3-0.6 0.6-0.6 0.8-1.7 0.5-0.6 1.5-1.4 0.3-0.5 0.4-0.3 1.9-0.7 0.6-0.6 0.9 0 1.6-0.5 0.7 0.3z m-47.9-8l0.6 0.6-0.1 1.2-0.7 2.3 0 0.7 0.3 0.7 0.1 0.6-0.1 0.2-0.5 1.2 0 0.3-0.9 0.3-0.6 0.9-0.6 1-0.7 0.8-0.4 0.3-0.3 0.1-2.7-0.1-0.2 0.2-0.3 1.1-0.7 0.5-1 0.2-1-0.1-1.9-0.6-1.1-0.2-0.4-0.3-0.2-0.3-0.3-0.1-0.4-0.4-1.2-1.6-0.5-0.6-0.7 0.1-1.1-0.2-0.9-0.5-0.6-0.5-0.1-0.7 0.1-2.6 0.3-1.5 0.6-1.3 0.8-1.1 0.9-0.9 0.5-0.4 1.5-0.6 0.6-0.2 0.6 0.1 1.2 0.2 0.4 0.1 0.5-0.1 0.6-0.5 0.4-0.1 5.1-0.6 1.2-0.6 0.3 0.1 0.3 0.2 0.3 0.2 0.3 0.3 0.1 0.5-0.1 0.6 0.1 0.6 0.4 0.2 0.5 0 1.1 0.3 0.6 0z m-65.5-4.6l-0.5 0.3-3.8 1.5-0.9 0.2-0.5 0-0.6-0.2-1.1-0.7-1-0.3-1.6-0.6-0.3-0.1-0.6 0.1-0.2 0-0.3-0.2 0-0.2 0.1-0.2-0.2-0.2-0.9-1-0.7-1.1-0.5-1.2-0.3-2.5-0.7-2 0.1-0.7 4.8 0.1 2-1 2.5-0.6 1.3-0.4 0.3 0 0.7 0.4 1.8 1.9 0.6 0.3 0.6 0.5 0.2 1.2-0.3 2 0 4.7z m45.3-9.1l0.7 0.4-0.3 1-1.2 1.7-0.4 1.2-1 0.3-1.2-0.2-2.3-0.7-3.8 0-1-0.3-1-0.6-1-0.3-1.2 0.5-0.8-1-0.3-1.4-0.6-1.1-1.3-0.3 2.3-3.1 0.1-0.7-0.3-1 0.4-1 0.9-0.6 1-0.2 0.4 0.2 0.2 0 0.2-0.2 1.1 0.7 3.7 1.3 1.3 0.2 1.8 0.7 2.8 3.1 1.5 1-0.2 0.1-0.2 0-0.3 0.3z m-13.3 24.1l0.5 0.3 0.3 0 0.2 0.2 0 0.8-0.2 0.3-1.3 0.6-0.5 0.2-1.7 5.3 0.2 1.4-0.1 0.9-1.2-0.3-0.6 0.9-1.4 1.5-0.6 0.9-0.9-0.4-0.9-0.1-1.7 0.1-1.1 0.3-1.7 1.3-6.2 2.1-1.2-0.3-0.8 0.2-4.9-0.7-6.1 0.1-1.1-0.3-0.9-0.8-0.2-0.6-0.1-0.6 0-1.2-0.2-0.6-0.5-0.2-0.6 0-0.6-0.2-1.4-2.1 0.5-2.5 1.5-2.3 1.6-1.6 6.4-4.1 0.2-0.4 0-0.4 0.2-0.2 0.9-0.1 1.3-0.6 1.9-0.5 0.7 0 0.6 0.2 0.3 0.2 0.2 0.2 0.3 0.2 1 0.3 0.5 0 0.6-0.2 0.3-0.3 0.5-0.8 0.3-0.2 0-0.5 0.5-1.2 0.8-0.8 0.8 0.3 0.6-0.9 0-0.8-0.4-0.7-0.6-0.6-0.8-0.3-1.6-0.5-0.6-0.3-1.3-1.2-1.3-1.7-1-1.9-0.5-1.8 0.1-1.6-0.2-0.6-0.6-0.5-0.5-0.1-0.7-0.1-0.3-0.1-0.2-0.3-0.5-0.8-3.3-1.8-1.3-1.4 0.1-1.7-1.1-0.6-0.7-1.2 0.1-1.1 1.3-0.4-1-1.4-0.3-0.8-0.2-1 0-1.8 0-0.5-0.3-0.9 0-0.5-0.5-1.8-1.2-0.9-1.7 0-1.8 0.7-1.9 1.3-1 0.2-1-0.6-1.1-1.5-0.2-0.3 0.1-0.5 0.3-0.3 0.4-0.1 3.7-2.1 1-1 0.4-2.2 1.3 0.4 1.1-0.3 1.1-0.5 1.7-0.5 0.4-0.4 0.3-0.5 0.4-0.4 0.7-0.2 1 0 0.5-0.2 0.9 0.8 0.4 1.3 0.2 1.1 0.2 0.5 0.7 0.5 0.7 2.4 0.5 0.5 0.3 0.2 0.8 1 0.3 0.3 1.2 0 0.5 0.1 0.4 0.2 0.4 1 0.1 1.3-0.2 2.5 1 6.1 0.6 0.9 2.3 2.1 0.2 0.2 0.1 0.3-0.1 0.7 0.2 0.6 0.4 0.2 0.4 0.1 0.2 0.2 5.5 3.5 0.4 0.6 0.1 0.5 0.3 0.4 0.7 0.8 0.3 0.1 0.8 0.2 0 0.3-0.1 0.4-0.1 0.2-0.1 0.2 0.5 2.1 0.2 2.2-0.3 1-1.5 1.3-0.4 0.8 1.2-0.8 0.3 0.5 0.1 1 0.2 0.8 2.3 0.5 1.1 0.6 0 1.2 0.7 0.1 0.6 0.3 0.5 0.4 0.4 0.7-0.4 0.7 0.8 0.3 1.9 1.9z m16.1-54.9l-0.5-0.2-0.6-0.4-0.4-0.5-0.2-0.4 0.1-1.2 0.9-0.9 1.2-0.6 1.1-0.2 1.3 0.4 1.3 0.6 1 0.8 0.5 1.1-0.3 0.8-1 0.9-1.2 0.7-1.2 0.2-0.6-0.2-0.7-0.7-0.7-0.2z m-15.4-20l2.2 1.2 0.7 2.4-0.9 1.8-2.4-1 0.4-1.1-0.4-2.4 0.4-0.9z m644.3-39.1l0 0.5 0.1 0.4 0.3 0.6 0 1.9-0.2 2.2-0.8 1.4-1.3-0.6-0.5 0.6-0.6 0.5-1.1-0.8-0.8-0.9-0.2-1 0.8-1.2 4.3-3.6z m-699.6-0.6l0.2 0 0.2 0.5-0.1 0.2-0.2 0.3-0.3-0.2-0.2-0.3 0-0.3 0.4-0.2z m-0.2-0.5l0.3 0-0.2 0.2-0.1-0.2z m-10.2-14.3l0.3-0.3 0.3 0.2 0 0.5-0.4 0.1-0.2-0.5z m660.3 224.5l0.6 1.4 1.3 0.5 0.7 1.2-1.2 1.7-1.9 1-0.2 2.4-1.3 0.8-1.1-0.1-0.3-1.2 0.8-2.1 1.1-2.9 1.5-2.7z" id="EC" name="Ecuador">
  </path>
 </g>
 <g id="points">
  <circle class="-4.677585246151541|-91.17236996218656" cx="90.9" cy="361.9" id="0">
  </circle>
  <circle class="-2.0072865878189567|-82.78020890747952" cx="545.5" cy="217" id="1">
  </circle>
  <circle class="1.330586735096773|-76.06648006371388" cx="909.1" cy="36.2" id="2">
  </circle>
 </g>
 <g id="label_points">
  <circle class="Ecuador" cx="794.2" cy="176.5" id="EC">
  </circle>
 </g>
</svg>